<svg id="Layer_1" data-name="Layer 1" xmlns="http://www.w3.org/2000/svg" viewBox="0 0 1280 948.57"><defs><style>.cls-1{fill:#1e1e1e;}.cls-2{fill:#fff;}</style></defs><path class="cls-1" d="M194.94,945.07l-18.87-51.7H67.77l-18.86,51.7H0L92.58,696.34h58.69l92.58,248.73Zm-73-205.41-42.62,117h84.9Z"/><path class="cls-1" d="M262.71,945.07V764.81h43V805c9.43-31.79,25.15-42.62,50.3-42.62,4.9,0,12.23,1.4,16.42,2.45v39.48l-18.51-.35c-27.6,0-46.12,20.61-46.12,57.29v83.84Z"/><path class="cls-1" d="M521.23,945.07l-52.76-77.55-27.59,27.25v50.3H395.81V696.34h45.07V843.41l76.5-78.6h52.41l-70.92,71.27,74.41,109Z"/><path class="cls-1" d="M581.66,883.94V764.81h45.07V875.2c0,24.46,8.73,36.69,30.74,36.69,23.76,0,39.13-17.12,39.13-46.47V764.81h45.07V945.07h-43V915.73c-9.79,19.21-25.86,32.84-55.55,32.84C601.93,948.57,581.66,927.61,581.66,883.94Z"/><path class="cls-1" d="M774.5,945.07V696.34h45.07V945.07Z"/><path class="cls-1" d="M867.78,894.42V797h-28.3V764.81h28.3v-54.5h45.06v54.5H952V797H912.84v99.21c0,14,5.94,18.87,20.26,18.87l18.87-.35v30.39c-7.34.7-21.66,1.75-29.7,1.75C881.4,946.82,867.78,934.24,867.78,894.42Z"/><path class="cls-1" d="M977.47,883.94V764.81h45.06V875.2c0,24.46,8.74,36.69,30.74,36.69,23.76,0,39.13-17.12,39.13-46.47V764.81h45.07V945.07h-43V915.73c-9.78,19.21-25.85,32.84-55.55,32.84C997.73,948.57,977.47,927.61,977.47,883.94Z"/><path class="cls-1" d="M1170.3,945.07V764.81h43V805c9.43-31.79,25.16-42.62,50.31-42.62,4.89,0,12.23,1.4,16.42,2.45v39.48l-18.52-.35c-27.6,0-46.11,20.61-46.11,57.29v83.84Z"/><path class="cls-2" d="M906.34,58.25v459.8a38.5,38.5,0,0,1-38.49,38.53H408a38.53,38.53,0,0,1-38.53-38.53V58.25A38.53,38.53,0,0,1,408,19.72H867.85A38.5,38.5,0,0,1,906.34,58.25Z"/><path class="cls-1" d="M489.28,340.22V484H499.4V333.47ZM456.64,362V484h10.11V355.26Zm32.64-21.8V484H499.4V333.47ZM456.64,362V484h10.11V355.26Zm352.47-21.8V484h10.12V333.47ZM776.46,362V484H786.6V355.26Zm-287.18-21.8V484H499.4V333.47ZM456.64,362V484h10.11V355.26Zm352.47-21.8V484h10.12V333.47ZM776.46,362V484H786.6V355.26Zm-287.18-21.8V484H499.4V333.47ZM456.64,362V484h10.11V355.26Zm352.47-21.8V484h10.12V333.47ZM776.46,362V484H786.6V355.26Zm-287.18-21.8V484H499.4V333.47ZM456.64,362V484h10.11V355.26Zm352.47-21.8V484h10.12V333.47ZM776.46,362V484H786.6V355.26Zm-287.18-21.8V484H499.4V333.47ZM456.64,362V484h10.11V355.26Zm352.47-21.8V484h10.12V333.47ZM776.46,362V484H786.6V355.26Zm-287.18-21.8V484H499.4V333.47ZM456.64,362V484h10.11V355.26ZM884.75,0H391.13a41.36,41.36,0,0,0-41.35,41.35V535a41.36,41.36,0,0,0,41.35,41.35H884.75A41.33,41.33,0,0,0,926.07,535V41.35A41.33,41.33,0,0,0,884.75,0Zm-336,506.59H407.28V484h26.81v-107l22.55-15V484h10.11V355.26l22.53-15V484H499.4V333.47l22.55-15V484h26.8Zm2.07-313.73a165.06,165.06,0,0,0-28.76,83.22,213.19,213.19,0,0,1,26.69,6.58v22.53H407.28V282.66a211.83,211.83,0,0,1,25-6.26c-1-29.74,1.75-94.52,38.43-147.2,37.54-53.93,85.26-58.77,96-59.49-13.37,6.26-53.07,27.47-82.09,85-22.6,44.77-28,90.25-28.95,118.48,3.55-.32,7.27-.57,11.1-.75-.21-28,4.71-79.24,38.57-121.52,37.52-46.91,85.27-51.12,96-51.74-13.39,5.43-53.07,23.88-82.1,73.91-21.5,37.06-27.42,74.68-28.77,99.4,2.68.14,5.27.3,7.81.51.27-24,6.19-64.79,38.57-98.71,37.52-39.3,85.26-42.82,96-43.35C619.54,135.47,579.86,150.92,550.82,192.86ZM868.6,506.59H727.1V484h26.83v-107l22.53-15V484H786.6V355.26l22.51-15V484h10.12V333.47l22.55-15V484H868.6Zm0-201.4H727.1V282.66a215.34,215.34,0,0,1,26.72-6.58,165.15,165.15,0,0,0-28.77-83.22c-29-41.94-68.71-57.39-82.1-62,10.77.53,58.52,4.05,96,43.35,32.36,33.94,38.3,74.7,38.57,98.71,2.54-.21,5.13-.37,7.81-.51-1.35-24.72-7.27-62.34-28.77-99.4-29-50-68.73-68.48-82.11-73.91,10.78.62,58.51,4.83,96,51.74,33.85,42.28,38.77,93.51,38.57,121.52,3.84.18,7.56.43,11.11.75-1-28.23-6.36-73.71-29-118.48-29-57.5-68.71-78.71-82.1-85,10.77.72,58.52,5.56,96.06,59.49,36.66,52.68,39.39,117.47,38.43,147.2-.08,2.3-.18,4.38-.27,6.26H868.6ZM456.64,362V484h10.11V355.26Zm32.64-21.8V484H499.4V333.47ZM776.46,362V484H786.6V355.26Zm32.65-21.8V484h10.12V333.47ZM456.64,362V484h10.11V355.26Zm32.64-21.8V484H499.4V333.47ZM776.46,362V484H786.6V355.26Zm32.65-21.8V484h10.12V333.47ZM456.64,362V484h10.11V355.26Zm32.64-21.8V484H499.4V333.47ZM776.46,362V484H786.6V355.26Zm32.65-21.8V484h10.12V333.47ZM456.64,362V484h10.11V355.26Zm32.64-21.8V484H499.4V333.47ZM776.46,362V484H786.6V355.26Zm32.65-21.8V484h10.12V333.47ZM456.64,362V484h10.11V355.26Zm32.64-21.8V484H499.4V333.47ZM776.46,362V484H786.6V355.26Zm32.65-21.8V484h10.12V333.47ZM456.64,362V484h10.11V355.26Zm32.64-21.8V484H499.4V333.47Z"/></svg>