<svg id="Layer_1" data-name="Layer 1" xmlns="http://www.w3.org/2000/svg" viewBox="0 0 1280 1280.03"><defs><style>.cls-1{fill:#fff;}.cls-2{fill:#1e1e1e;}</style></defs><path class="cls-1" d="M1236.19,129.37V1150.66a85.5,85.5,0,0,1-85.49,85.57H129.37a85.56,85.56,0,0,1-85.56-85.57V129.37a85.55,85.55,0,0,1,85.56-85.56H1150.7A85.49,85.49,0,0,1,1236.19,129.37Z"/><path class="cls-2" d="M309.85,755.67v319.44h22.47V740.68ZM237.33,804.1v271H259.8v-286Zm72.52-48.43v319.44h22.47V740.68ZM237.33,804.1v271H259.8v-286Zm782.9-48.43v319.44h22.47V740.68ZM947.72,804.1v271h22.5v-286ZM309.85,755.67v319.44h22.47V740.68ZM237.33,804.1v271H259.8v-286Zm782.9-48.43v319.44h22.47V740.68ZM947.72,804.1v271h22.5v-286ZM309.85,755.67v319.44h22.47V740.68ZM237.33,804.1v271H259.8v-286Zm782.9-48.43v319.44h22.47V740.68ZM947.72,804.1v271h22.5v-286ZM309.85,755.67v319.44h22.47V740.68ZM237.33,804.1v271H259.8v-286Zm782.9-48.43v319.44h22.47V740.68ZM947.72,804.1v271h22.5v-286ZM309.85,755.67v319.44h22.47V740.68ZM237.33,804.1v271H259.8v-286Zm782.9-48.43v319.44h22.47V740.68ZM947.72,804.1v271h22.5v-286ZM309.85,755.67v319.44h22.47V740.68ZM237.33,804.1v271H259.8v-286ZM1188.23,0H91.84A91.86,91.86,0,0,0,0,91.84V1188.19A91.85,91.85,0,0,0,91.84,1280H1188.23a91.79,91.79,0,0,0,91.77-91.84V91.84A91.8,91.8,0,0,0,1188.23,0ZM441.94,1125.2H127.71v-50.09h59.54V837.5l50.08-33.4v271H259.8v-286l50.05-33.4v319.44h22.47V740.68l50.08-33.4v367.83h59.54Zm4.58-696.84c-47.68,68.88-60.84,138.86-63.87,184.85a474.19,474.19,0,0,1,59.29,14.6v50.05H127.71V627.81a474.54,474.54,0,0,1,55.45-13.89C181,547.86,187,404,268.51,287c83.38-119.78,189.37-130.54,213.32-132.12-29.7,13.89-117.87,61-182.35,188.73C249.29,443,237.33,544,235.18,606.72c7.9-.7,16.16-1.27,24.66-1.66-.46-62.18,10.47-176,85.67-269.92C428.85,231,534.91,221.6,558.82,220.23c-29.73,12.06-117.87,53-182.34,164.15-47.76,82.32-60.91,165.87-63.91,220.79,6,.32,11.71.67,17.35,1.13.6-53.33,13.75-143.9,85.67-219.24,83.35-87.3,189.37-95.13,213.32-96.29C599.17,300.89,511,335.21,446.52,428.36Zm705.84,696.84H838.06v-50.09h59.61V837.5l50.05-33.4v271h22.5v-286l50-33.4v319.44h22.47V740.68l50.08-33.4v367.83h59.58Zm0-447.34H838.06V627.81a478.72,478.72,0,0,1,59.36-14.6c-3-46-16.22-115.93-63.91-184.85C769,335.21,680.9,300.89,651.16,290.77c23.92,1.16,130,9,213.32,96.29C936.36,462.43,949.55,553,950.15,606.3c5.64-.46,11.39-.81,17.35-1.13-3-54.92-16.15-138.47-63.91-220.79-64.51-111.1-152.65-152.09-182.38-164.15,23.95,1.37,130,10.72,213.32,114.91,75.19,93.92,86.13,207.71,85.67,269.92,8.53.39,16.79,1,24.69,1.66C1042.7,544,1030.74,443,980.55,343.57,916.11,215.85,827.94,168.73,798.21,154.84c23.91,1.58,130,12.34,213.35,132.12,81.44,117,87.5,260.93,85.35,327-.18,5.11-.39,9.73-.6,13.89h56Zm-915,126.24v271H259.8v-286Zm72.52-48.43v319.44h22.47V740.68ZM947.72,804.1v271h22.5v-286Zm72.51-48.43v319.44h22.47V740.68ZM237.33,804.1v271H259.8v-286Zm72.52-48.43v319.44h22.47V740.68ZM947.72,804.1v271h22.5v-286Zm72.51-48.43v319.44h22.47V740.68ZM237.33,804.1v271H259.8v-286Zm72.52-48.43v319.44h22.47V740.68ZM947.72,804.1v271h22.5v-286Zm72.51-48.43v319.44h22.47V740.68ZM237.33,804.1v271H259.8v-286Zm72.52-48.43v319.44h22.47V740.68ZM947.72,804.1v271h22.5v-286Zm72.51-48.43v319.44h22.47V740.68ZM237.33,804.1v271H259.8v-286Zm72.52-48.43v319.44h22.47V740.68ZM947.72,804.1v271h22.5v-286Zm72.51-48.43v319.44h22.47V740.68ZM237.33,804.1v271H259.8v-286Zm72.52-48.43v319.44h22.47V740.68Z"/></svg>