<svg id="Layer_1" data-name="Layer 1" xmlns="http://www.w3.org/2000/svg" viewBox="0 0 1024.64 970.36"><defs><style>.cls-1{fill:#fff;}</style></defs><polygon class="cls-1" points="965.07 552.44 914.98 585.84 914.98 920.27 892.52 920.27 892.52 600.83 842.5 634.23 842.5 920.27 820 920.27 820 649.25 769.95 682.65 769.95 920.27 710.35 920.27 710.35 970.36 1024.64 970.36 1024.64 920.27 965.07 920.27 965.07 552.44"/><path class="cls-1" d="M968.6,473c.21-4.16.42-8.78.6-13.89,2.15-66-3.92-209.93-85.36-327C800.46,12.34,694.4,1.58,670.49,0,700.22,13.89,788.4,61,852.84,188.73,903,288.16,915,389.17,917.17,451.88c-7.9-.7-16.15-1.27-24.69-1.66.46-62.21-10.47-176-85.67-269.92C723.47,76.11,617.44,66.76,593.49,65.39c29.74,12.06,117.88,53,182.39,164.15,47.75,82.32,60.91,165.87,63.91,220.79-6,.32-11.71.67-17.35,1.13-.6-53.33-13.8-143.87-85.68-219.24-83.34-87.3-189.4-95.13-213.31-96.29,29.73,10.12,117.87,44.44,182.35,137.59,47.68,68.92,60.87,138.86,63.91,184.85A478.72,478.72,0,0,0,710.35,473v50h314.29V473Z"/><path class="cls-1" d="M287.88,232.22C216,307.56,202.8,398.13,202.2,451.46c-5.64-.46-11.39-.81-17.35-1.13,3-54.92,16.15-138.47,63.91-220.79C313.24,118.43,401.38,77.45,431.11,65.39c-23.91,1.37-130,10.72-213.32,114.91C142.6,274.22,131.66,388,132.12,450.22c-8.5.39-16.75,1-24.65,1.66,2.15-62.71,14.11-163.72,64.3-263.15C236.24,61,324.42,13.89,354.11,0,330.17,1.58,224.18,12.34,140.8,132.12c-81.48,117-87.51,260.9-85.35,327A474,474,0,0,0,0,473v50H314.22V473a473.26,473.26,0,0,0-59.29-14.6c3-46,16.19-116,63.88-184.85,64.51-93.15,152.65-127.47,182.38-137.59C477.24,137.09,371.22,144.92,287.88,232.22Z"/><polygon class="cls-1" points="254.69 552.44 204.6 585.84 204.6 920.27 182.14 920.27 182.14 600.83 132.09 634.23 132.09 920.27 109.62 920.27 109.62 649.25 59.54 682.65 59.54 920.27 0 920.27 0 970.36 314.22 970.36 314.22 920.27 254.69 920.27 254.69 552.44"/></svg>